<mxfile host="app.diagrams.net" modified="2024-06-05T22:38:19.178Z" agent="Mozilla/5.0 (Windows NT 10.0; Win64; x64) AppleWebKit/537.36 (KHTML, like Gecko) Chrome/125.0.0.0 Safari/537.36" etag="Y6s0akI5P7MJi5NUlxkq" version="24.4.13" type="github">
  <diagram name="‫עמוד-1‬" id="mDzBvKNFUR8dziS2r7m7">
    <mxGraphModel dx="2265" dy="1085" grid="0" gridSize="10" guides="1" tooltips="1" connect="1" arrows="1" fold="1" page="0" pageScale="1" pageWidth="827" pageHeight="1169" math="0" shadow="0">
      <root>
        <mxCell id="0" />
        <mxCell id="1" parent="0" />
        <mxCell id="wvLcPsDLCrIeRJ1zxTek-11" style="edgeStyle=none;curved=1;rounded=0;orthogonalLoop=1;jettySize=auto;html=1;entryX=0.5;entryY=0;entryDx=0;entryDy=0;fontFamily=Architects Daughter;fontSource=https%3A%2F%2Ffonts.googleapis.com%2Fcss%3Ffamily%3DArchitects%2BDaughter;fontSize=15;startSize=14;endArrow=open;endSize=14;sourcePerimeterSpacing=8;targetPerimeterSpacing=8;" edge="1" parent="1" source="wvLcPsDLCrIeRJ1zxTek-1" target="wvLcPsDLCrIeRJ1zxTek-5">
          <mxGeometry relative="1" as="geometry" />
        </mxCell>
        <mxCell id="wvLcPsDLCrIeRJ1zxTek-12" style="edgeStyle=none;curved=1;rounded=0;orthogonalLoop=1;jettySize=auto;html=1;entryX=0.5;entryY=0;entryDx=0;entryDy=0;fontFamily=Architects Daughter;fontSource=https%3A%2F%2Ffonts.googleapis.com%2Fcss%3Ffamily%3DArchitects%2BDaughter;fontSize=15;startSize=14;endArrow=open;endSize=14;sourcePerimeterSpacing=8;targetPerimeterSpacing=8;" edge="1" parent="1" source="wvLcPsDLCrIeRJ1zxTek-1" target="wvLcPsDLCrIeRJ1zxTek-6">
          <mxGeometry relative="1" as="geometry" />
        </mxCell>
        <mxCell id="wvLcPsDLCrIeRJ1zxTek-1" value="&lt;font style=&quot;font-size: 15px;&quot;&gt;Lexical Analysis&lt;/font&gt;" style="rounded=0;whiteSpace=wrap;html=1;fontFamily=Architects Daughter;fontSource=https%3A%2F%2Ffonts.googleapis.com%2Fcss%3Ffamily%3DArchitects%2BDaughter;fontSize=15;" vertex="1" parent="1">
          <mxGeometry x="135" y="129" width="136" height="45" as="geometry" />
        </mxCell>
        <mxCell id="wvLcPsDLCrIeRJ1zxTek-10" style="edgeStyle=none;curved=1;rounded=0;orthogonalLoop=1;jettySize=auto;html=1;entryX=0.5;entryY=0;entryDx=0;entryDy=0;fontFamily=Architects Daughter;fontSource=https%3A%2F%2Ffonts.googleapis.com%2Fcss%3Ffamily%3DArchitects%2BDaughter;fontSize=15;startSize=14;endArrow=open;endSize=14;sourcePerimeterSpacing=8;targetPerimeterSpacing=8;" edge="1" parent="1" source="wvLcPsDLCrIeRJ1zxTek-2" target="wvLcPsDLCrIeRJ1zxTek-1">
          <mxGeometry relative="1" as="geometry" />
        </mxCell>
        <mxCell id="wvLcPsDLCrIeRJ1zxTek-2" value="&lt;font face=&quot;Architects Daughter&quot; data-font-src=&quot;https://fonts.googleapis.com/css?family=Architects+Daughter&quot; style=&quot;font-size: 15px;&quot;&gt;Input Python string&lt;/font&gt;" style="text;strokeColor=none;fillColor=none;html=1;align=center;verticalAlign=middle;whiteSpace=wrap;rounded=0;fontSize=15;fontFamily=Georgia;" vertex="1" parent="1">
          <mxGeometry x="111" y="65" width="180" height="30" as="geometry" />
        </mxCell>
        <mxCell id="wvLcPsDLCrIeRJ1zxTek-16" style="edgeStyle=none;curved=1;rounded=0;orthogonalLoop=1;jettySize=auto;html=1;entryX=0.5;entryY=0;entryDx=0;entryDy=0;fontFamily=Architects Daughter;fontSource=https%3A%2F%2Ffonts.googleapis.com%2Fcss%3Ffamily%3DArchitects%2BDaughter;fontSize=15;startSize=14;endArrow=open;endSize=14;sourcePerimeterSpacing=8;targetPerimeterSpacing=8;" edge="1" parent="1" source="wvLcPsDLCrIeRJ1zxTek-4" target="wvLcPsDLCrIeRJ1zxTek-7">
          <mxGeometry relative="1" as="geometry" />
        </mxCell>
        <mxCell id="wvLcPsDLCrIeRJ1zxTek-4" value="&lt;font style=&quot;font-size: 15px;&quot;&gt;Syntax Analysis&lt;/font&gt;" style="rounded=0;whiteSpace=wrap;html=1;fontFamily=Architects Daughter;fontSource=https%3A%2F%2Ffonts.googleapis.com%2Fcss%3Ffamily%3DArchitects%2BDaughter;fontSize=15;" vertex="1" parent="1">
          <mxGeometry x="135" y="301" width="136" height="45" as="geometry" />
        </mxCell>
        <mxCell id="wvLcPsDLCrIeRJ1zxTek-13" style="edgeStyle=none;curved=1;rounded=0;orthogonalLoop=1;jettySize=auto;html=1;entryX=0.5;entryY=0;entryDx=0;entryDy=0;fontFamily=Architects Daughter;fontSource=https%3A%2F%2Ffonts.googleapis.com%2Fcss%3Ffamily%3DArchitects%2BDaughter;fontSize=15;startSize=14;endArrow=open;endSize=14;sourcePerimeterSpacing=8;targetPerimeterSpacing=8;" edge="1" parent="1" source="wvLcPsDLCrIeRJ1zxTek-5" target="wvLcPsDLCrIeRJ1zxTek-4">
          <mxGeometry relative="1" as="geometry" />
        </mxCell>
        <mxCell id="wvLcPsDLCrIeRJ1zxTek-5" value="&lt;font face=&quot;Architects Daughter&quot; data-font-src=&quot;https://fonts.googleapis.com/css?family=Architects+Daughter&quot; style=&quot;font-size: 15px;&quot;&gt;Vector of tokens&lt;/font&gt;" style="text;strokeColor=none;fillColor=none;html=1;align=center;verticalAlign=middle;whiteSpace=wrap;rounded=0;fontSize=15;fontFamily=Georgia;" vertex="1" parent="1">
          <mxGeometry x="44" y="225" width="136" height="42" as="geometry" />
        </mxCell>
        <mxCell id="wvLcPsDLCrIeRJ1zxTek-30" style="edgeStyle=none;curved=1;rounded=0;orthogonalLoop=1;jettySize=auto;html=1;entryX=0.75;entryY=0;entryDx=0;entryDy=0;fontFamily=Architects Daughter;fontSource=https%3A%2F%2Ffonts.googleapis.com%2Fcss%3Ffamily%3DArchitects%2BDaughter;fontSize=15;startSize=14;endArrow=open;endSize=14;sourcePerimeterSpacing=8;targetPerimeterSpacing=8;" edge="1" parent="1" source="wvLcPsDLCrIeRJ1zxTek-6" target="wvLcPsDLCrIeRJ1zxTek-8">
          <mxGeometry relative="1" as="geometry" />
        </mxCell>
        <mxCell id="wvLcPsDLCrIeRJ1zxTek-6" value="&lt;font face=&quot;Architects Daughter&quot; data-font-src=&quot;https://fonts.googleapis.com/css?family=Architects+Daughter&quot; style=&quot;font-size: 15px;&quot;&gt;Scopes tree&lt;/font&gt;" style="text;strokeColor=none;fillColor=none;html=1;align=center;verticalAlign=middle;whiteSpace=wrap;rounded=0;fontSize=15;fontFamily=Georgia;" vertex="1" parent="1">
          <mxGeometry x="312" y="231" width="136" height="30" as="geometry" />
        </mxCell>
        <mxCell id="wvLcPsDLCrIeRJ1zxTek-21" style="edgeStyle=none;curved=1;rounded=0;orthogonalLoop=1;jettySize=auto;html=1;entryX=0.5;entryY=0;entryDx=0;entryDy=0;fontFamily=Architects Daughter;fontSource=https%3A%2F%2Ffonts.googleapis.com%2Fcss%3Ffamily%3DArchitects%2BDaughter;fontSize=15;startSize=14;endArrow=open;endSize=14;sourcePerimeterSpacing=8;targetPerimeterSpacing=8;" edge="1" parent="1" source="wvLcPsDLCrIeRJ1zxTek-7" target="wvLcPsDLCrIeRJ1zxTek-8">
          <mxGeometry relative="1" as="geometry" />
        </mxCell>
        <mxCell id="wvLcPsDLCrIeRJ1zxTek-7" value="&lt;font face=&quot;Architects Daughter&quot; data-font-src=&quot;https://fonts.googleapis.com/css?family=Architects+Daughter&quot; style=&quot;font-size: 15px;&quot;&gt;Abstract syntax tree&lt;/font&gt;" style="text;strokeColor=none;fillColor=none;html=1;align=center;verticalAlign=middle;whiteSpace=wrap;rounded=0;fontSize=15;fontFamily=Georgia;" vertex="1" parent="1">
          <mxGeometry x="135" y="381" width="136" height="51" as="geometry" />
        </mxCell>
        <mxCell id="wvLcPsDLCrIeRJ1zxTek-25" style="edgeStyle=none;curved=1;rounded=0;orthogonalLoop=1;jettySize=auto;html=1;entryX=0.5;entryY=0;entryDx=0;entryDy=0;fontFamily=Architects Daughter;fontSource=https%3A%2F%2Ffonts.googleapis.com%2Fcss%3Ffamily%3DArchitects%2BDaughter;fontSize=15;startSize=14;endArrow=open;endSize=14;sourcePerimeterSpacing=8;targetPerimeterSpacing=8;" edge="1" parent="1" source="wvLcPsDLCrIeRJ1zxTek-8" target="wvLcPsDLCrIeRJ1zxTek-23">
          <mxGeometry relative="1" as="geometry" />
        </mxCell>
        <mxCell id="wvLcPsDLCrIeRJ1zxTek-8" value="&lt;font style=&quot;font-size: 15px;&quot;&gt;Semantic Analysis&lt;/font&gt;" style="rounded=0;whiteSpace=wrap;html=1;fontFamily=Architects Daughter;fontSource=https%3A%2F%2Ffonts.googleapis.com%2Fcss%3Ffamily%3DArchitects%2BDaughter;fontSize=15;" vertex="1" parent="1">
          <mxGeometry x="134" y="475" width="136" height="49" as="geometry" />
        </mxCell>
        <mxCell id="wvLcPsDLCrIeRJ1zxTek-9" value="&lt;font face=&quot;Architects Daughter&quot; data-font-src=&quot;https://fonts.googleapis.com/css?family=Architects+Daughter&quot; style=&quot;font-size: 15px;&quot;&gt;Output c string&lt;/font&gt;" style="text;strokeColor=none;fillColor=none;html=1;align=center;verticalAlign=middle;whiteSpace=wrap;rounded=0;fontSize=15;fontFamily=Georgia;" vertex="1" parent="1">
          <mxGeometry x="123" y="749" width="160" height="30" as="geometry" />
        </mxCell>
        <mxCell id="wvLcPsDLCrIeRJ1zxTek-27" style="edgeStyle=none;curved=1;rounded=0;orthogonalLoop=1;jettySize=auto;html=1;entryX=0.5;entryY=0;entryDx=0;entryDy=0;fontFamily=Architects Daughter;fontSource=https%3A%2F%2Ffonts.googleapis.com%2Fcss%3Ffamily%3DArchitects%2BDaughter;fontSize=15;startSize=14;endArrow=open;endSize=14;sourcePerimeterSpacing=8;targetPerimeterSpacing=8;" edge="1" parent="1" source="wvLcPsDLCrIeRJ1zxTek-23" target="wvLcPsDLCrIeRJ1zxTek-26">
          <mxGeometry relative="1" as="geometry" />
        </mxCell>
        <mxCell id="wvLcPsDLCrIeRJ1zxTek-23" value="&lt;font face=&quot;Architects Daughter&quot; data-font-src=&quot;https://fonts.googleapis.com/css?family=Architects+Daughter&quot; style=&quot;font-size: 15px;&quot;&gt;Abstract syntax tree&lt;/font&gt;" style="text;strokeColor=none;fillColor=none;html=1;align=center;verticalAlign=middle;whiteSpace=wrap;rounded=0;fontSize=15;fontFamily=Georgia;" vertex="1" parent="1">
          <mxGeometry x="133" y="557" width="136" height="51" as="geometry" />
        </mxCell>
        <mxCell id="wvLcPsDLCrIeRJ1zxTek-28" style="edgeStyle=none;curved=1;rounded=0;orthogonalLoop=1;jettySize=auto;html=1;entryX=0.5;entryY=0;entryDx=0;entryDy=0;fontFamily=Architects Daughter;fontSource=https%3A%2F%2Ffonts.googleapis.com%2Fcss%3Ffamily%3DArchitects%2BDaughter;fontSize=15;startSize=14;endArrow=open;endSize=14;sourcePerimeterSpacing=8;targetPerimeterSpacing=8;" edge="1" parent="1" source="wvLcPsDLCrIeRJ1zxTek-26" target="wvLcPsDLCrIeRJ1zxTek-9">
          <mxGeometry relative="1" as="geometry" />
        </mxCell>
        <mxCell id="wvLcPsDLCrIeRJ1zxTek-26" value="&lt;font style=&quot;font-size: 15px;&quot;&gt;Code Generating&lt;/font&gt;" style="rounded=0;whiteSpace=wrap;html=1;fontFamily=Architects Daughter;fontSource=https%3A%2F%2Ffonts.googleapis.com%2Fcss%3Ffamily%3DArchitects%2BDaughter;fontSize=15;" vertex="1" parent="1">
          <mxGeometry x="134" y="647" width="136" height="49" as="geometry" />
        </mxCell>
      </root>
    </mxGraphModel>
  </diagram>
</mxfile>
